<svg width="464" height="34" viewBox="0 0 464 34" fill="none" xmlns="http://www.w3.org/2000/svg">
<g clip-path="url(#clip0_3_971)">
<path d="M24.8825 2.25589C23.5155 6.09782 22.2637 7.20652 20.1287 7.20652C19.2071 7.20652 18.3931 7.06023 17.7326 6.91395V26.6472C20.2746 26.5702 22.9702 25.577 24.368 24.4683L24.7366 25.0611C22.8166 27.7944 19.9444 30.1273 14.7452 30.1273C7.74122 30.1273 2.58041 25.2844 2.58041 17.8931C2.58041 12.3881 6.2667 8.28442 10.9514 5.80525C10.0298 5.72826 9.06982 5.65897 7.92554 5.65897C5.38353 5.65897 2.76472 6.87545 0.69886 12.7885L0 12.5267C1.2902 4.14221 4.23924 1.95561 8.92391 1.95561C13.6086 1.95561 16.6651 3.61866 21.9719 3.61866C22.6016 3.61866 23.1545 3.43388 24.4064 1.80933L24.8825 2.25589ZM11.6118 5.87455H11.535C9.40006 7.94565 7.00396 11.3795 7.00396 15.9298C7.00396 19.1481 7.77962 21.6196 9.17734 23.3981L10.4291 22.5127C11.2432 21.9198 11.6118 21.1114 11.6118 18.9633V5.87455ZM17.0722 6.79846C16.6651 6.72147 16.1122 6.57518 15.5592 6.46739V19.8102C15.5592 19.8102 11.6886 22.4357 9.62277 23.8755C11.3584 25.6848 13.862 26.6087 17.0722 26.6472V6.79846Z" fill="white"/>
<path d="M37.677 10.5326C37.2008 10.8252 37.1624 11.3795 37.1624 12.2341V26.0543C37.1624 29.3034 36.1333 31.9289 31.226 34L30.6346 33.7382C32.5546 32.183 33.3609 30.6354 33.3609 27.1938V11.7876C32.808 11.418 32.255 11.1255 31.3719 10.5711L30.1892 11.495V26.0928C30.4503 26.3546 31.0724 26.755 31.441 27.0168V27.0937C30.7037 27.7251 29.3367 28.9031 28.7531 29.5729C27.8699 28.8338 26.5029 27.8021 25.7656 27.2785V27.1322C26.1343 26.9475 26.3954 26.4701 26.3954 25.3614V3.24909C26.3954 2.36368 26.3186 1.77083 26.0267 1.36277L26.1727 1.28578C26.6872 1.43206 27.4629 2.06341 27.724 2.80254H27.8008C28.3537 1.58605 29.091 0.477354 30.673 -0.00769997L30.7805 0.0692928C30.4503 0.585144 30.1892 1.25498 30.1892 2.54846V10.6789C31.1492 9.93976 32.6621 8.56929 33.5836 7.76087C34.7279 8.57699 36.31 9.5317 37.677 10.4248V10.5326Z" fill="white"/>
<path d="M44.3122 18.6245V24.2758C46.5624 25.7156 47.484 26.0851 48.1444 26.0851C48.4056 26.0851 48.659 25.9389 48.9201 25.6771L49.2503 25.346L49.8033 25.9389C48.9585 26.755 47.1845 28.5258 46.2629 29.5575C44.6809 28.5566 41.7625 26.8936 39.8887 25.9697V25.8234C40.3341 25.4923 40.5184 25.1612 40.5184 24.014V10.7174C42.4384 10.2015 44.9804 9.13134 47.1537 7.72237C47.9985 9.5702 49.9185 13.2274 50.9476 14.8904C49.619 15.8913 46.4165 17.4774 44.3122 18.6245ZM44.4965 10.163L44.3122 10.2015V17.6698C45.4565 17.1155 46.8926 16.4149 47.6683 15.899C46.7467 14.3822 45.1263 11.572 44.4965 10.1707V10.163Z" fill="white"/>
<path d="M77.5966 29.8655C76.3832 28.9801 74.133 27.9099 72.2131 27.3555V27.1322C73.6492 26.1698 74.7551 24.9149 74.7551 22.736V16.3456L68.4884 19.1943V25.6232C69.1181 25.731 69.5943 25.8465 69.7786 25.8465C70.224 25.8465 70.5926 25.5539 71.2147 24.7378L71.806 25.1458C71.0688 26.1082 69.1181 28.5104 68.1965 29.8732C66.3534 29.0571 63.773 28.4719 60.3785 28.4719C58.5354 28.4719 57.8365 28.88 56.5847 29.8732L56.0702 29.2803L59.2035 26.4316C60.5321 25.2151 62.0066 23.3673 62.0066 21.5503V17.5236H61.5996C59.8333 17.5236 58.6506 17.9701 58.0592 19.1866L57.729 19.0403C58.0976 15.2369 59.7565 13.6046 61.8914 13.6046H61.999V8.28442C58.8656 6.06703 58.2359 5.80525 57.537 5.80525C57.0609 5.80525 56.7229 6.13632 56.17 6.62138L55.6938 6.10553C56.9073 5.10462 59.2342 3.149 60.3401 2.18659C61.999 3.37228 64.0264 4.85054 66.1307 6.3596C66.7604 5.88225 67.2366 5.58197 67.7895 5.17391V4.72736C67.7895 3.80344 67.6052 2.80254 67.4593 2.32518V2.24819L68.2733 2.35598C68.3809 2.80254 68.4961 3.68795 68.4961 4.38859V4.68116C69.4176 3.98053 70.416 3.31069 71.8137 2.24049C75.7227 2.94112 79.0404 5.45879 79.0404 10.4094V18.2473C79.0404 21.6119 77.827 22.6436 75.8686 24.3066V24.4144C77.4891 25.0457 79.4781 25.5616 80.8835 25.7079C80.0388 26.7781 78.595 28.4026 77.6043 29.8501L77.5966 29.8655ZM67.7895 6.02083L66.2766 7.12953V18.8863C66.2766 21.5503 64.2875 23.5829 61.853 25.0919L61.9606 25.2382C62.6594 25.0149 63.0664 24.8302 63.9112 24.8302C64.6869 24.8302 66.3841 25.1612 67.7818 25.4615V6.02083H67.7895ZM74.7551 12.1264V11.7568C74.7551 7.09873 72.0287 5.69746 68.8954 5.21241L68.4884 5.54348V15.0059L74.7551 12.1264ZM74.7551 15.5602V12.8655L68.4884 15.7142V18.4475L74.7551 15.5679V15.5602Z" fill="white"/>
<path d="M86.6662 18.6245V24.2758C88.9164 25.7156 89.838 26.0851 90.4984 26.0851C90.7596 26.0851 91.013 25.9389 91.2741 25.6771L91.6043 25.346L92.1573 25.9389C91.3125 26.755 89.5385 28.5258 88.6169 29.5575C87.0349 28.5566 84.1165 26.8936 82.2427 25.9697V25.8234C82.6881 25.4923 82.8724 25.1612 82.8724 24.014V10.7174C84.7924 10.2015 87.3344 9.13134 89.5078 7.72237C90.3525 9.5702 92.2725 13.2274 93.3016 14.8904C91.973 15.8913 88.7705 17.4774 86.6662 18.6245ZM86.8505 10.163L86.6662 10.2015V17.6698C87.8105 17.1155 89.2466 16.4149 90.0223 15.899C89.1007 14.3822 87.4803 11.572 86.8505 10.1707V10.163Z" fill="white"/>
<path d="M103.032 25.9466L99.4534 29.5652C98.0173 28.6413 95.8746 27.3863 94.5153 26.7165V26.5702C94.9915 26.2776 95.1451 25.6848 95.1451 24.7994V12.0494H93.5938V11.8261C95.5828 10.5326 97.6103 7.06023 98.647 4.32699H98.9082V9.90897H102.702L101.742 12.0494H98.9005V25.0611C100.667 26.2083 100.82 26.1313 101.404 26.1313C101.696 26.1313 102.034 25.9466 102.18 25.7618L102.472 25.4307L103.025 25.9466H103.032Z" fill="white"/>
<path d="M123.122 10.24C122.754 10.5018 122.493 10.9792 122.493 12.1957V25.4307C120.058 26.832 117.885 28.2409 115.965 29.5729C114.782 28.726 113.607 27.9099 112.424 27.2477C111.242 28.0254 110.105 28.7645 109.03 29.5729C107.817 28.726 105.712 27.3555 104.13 26.4316V26.2853C104.537 26.0235 104.76 25.6232 104.76 24.5453V14.49C104.76 12.7885 104.499 12.1957 103.838 11.1255C103.362 10.3478 103.024 9.75498 103.024 8.61549C103.024 6.95244 104.391 5.58197 105.497 4.95833L105.789 5.10462C105.313 5.62047 104.975 6.29031 104.975 7.13723C104.975 7.98415 105.605 8.57699 106.964 9.90897C107.924 10.8329 108.546 12.0186 108.546 14.3053V20.7726C108.546 21.9198 108.032 23.4674 107.294 24.0987V24.2065C108.546 25.0226 110.72 26.2776 111.649 26.755L111.726 26.7165V11.2717C111.28 10.9022 110.95 10.6404 110.474 10.3478V10.3093C111.288 9.6087 112.501 8.5 113.2 7.76087C113.937 8.39221 115.266 9.46241 116.149 10.0861V10.2708C115.857 10.4556 115.519 10.7867 115.519 12.0109V25.1689C116.364 25.7233 117.547 26.3854 118.614 26.9398L118.691 26.9013V11.2717C118.246 10.9022 117.877 10.6404 117.439 10.3478V10.3093C118.323 9.5317 120.166 7.76087 120.166 7.76087C120.903 8.39221 122.232 9.46241 123.115 10.0861V10.2323L123.122 10.24Z" fill="white"/>
<path d="M137.353 10.9407C137.022 11.2024 136.723 11.5335 136.723 12.6037V25.4692C135.026 26.4316 132.376 28.0947 130.379 29.5729C128.759 28.4642 126.877 27.2785 125.326 26.3931V26.2468C125.772 26.062 125.956 25.5847 125.956 24.8071V11.8261C127.837 10.7559 130.379 9.13134 132.299 7.72237C133.851 8.72328 135.763 9.93976 137.353 10.7867V10.933V10.9407ZM132.921 26.909V12.2726C132.077 11.6798 130.817 10.9022 129.865 10.3478L129.757 10.3863V25.0226C130.571 25.6155 132.008 26.5009 132.852 26.9783L132.929 26.9013L132.921 26.909Z" fill="white"/>
<path d="M147.966 14.7826H147.82C146.899 13.7817 145.532 11.7876 145.094 10.7174L144.318 11.5335V24.9841C146.085 26.0928 146.423 26.2391 146.975 26.2391C147.237 26.2391 147.452 26.0159 147.674 25.7618L148.005 25.3922L148.634 25.9466C146.461 28.1255 145.056 29.5652 145.056 29.5652C143.504 28.5335 141.815 27.6096 139.895 26.6857V26.5394C140.302 26.1698 140.524 25.8388 140.524 24.6916V11.4565C139.749 10.8637 139.234 10.6404 138.681 10.6096L138.604 10.5018C139.449 9.72418 140.555 8.73098 141.408 7.76857C142.437 8.61549 143.55 9.61639 144.464 10.3555C145.754 9.24683 146.161 8.80027 147.229 7.76857C147.928 8.87726 149.18 10.6481 150.324 11.8723C149.587 12.6114 148.665 13.8279 147.966 14.7903V14.7826Z" fill="white"/>
<path d="M164.962 26.832C164.225 27.5326 163.011 28.7568 162.12 29.6037C162.12 29.6037 160.17 28.1639 159.21 27.5326V21.3578C159.21 19.587 158.396 18.8093 157.259 18.3243L156.046 19.1404V26.0851C156.491 26.4547 156.821 26.6395 157.297 27.0091V27.0476C156.637 27.6404 155.454 28.6721 154.571 29.5575C153.834 28.9262 152.505 28.0023 151.622 27.3786V27.2323C151.991 26.9706 152.252 26.5702 152.252 25.346V3.24909C152.252 2.36368 152.175 1.77083 151.883 1.36277L152.029 1.28578C152.582 1.47056 153.319 2.06341 153.58 2.80254H153.657C154.172 1.50906 155.132 0.438858 156.529 -0.00769997L156.637 0.0692928C156.307 0.585144 156.046 1.25498 156.046 2.54846V10.7867L160.208 7.75317C161.022 9.04665 162.343 11.5951 163.08 13.0734C163.265 12.9656 163.487 12.7423 163.633 12.519H163.672C163.748 12.7423 164.002 13.2582 164.002 13.4044C162.819 14.2514 161.498 15.2138 160.131 16.1377C161.314 16.692 163.004 17.7237 163.004 19.6101V25.8927C163.595 26.3392 164.44 26.7781 164.885 26.7396L164.962 26.8166V26.832ZM157.512 10.7944L156.038 11.7568V18.1857C157.29 17.3388 158.695 16.2994 159.909 15.4139C159.21 13.8972 158.211 11.9031 157.512 10.7944Z" fill="white"/>
<path d="M196.18 2.25589C194.813 6.09782 193.561 7.20652 191.426 7.20652C190.504 7.20652 189.69 7.06023 189.03 6.91395V26.6472C191.572 26.5702 194.268 25.577 195.665 24.4683L196.034 25.0611C194.114 27.7944 191.242 30.1273 186.043 30.1273C179.039 30.1273 173.878 25.2844 173.878 17.8931C173.878 12.3881 177.564 8.28442 182.249 5.80525C181.327 5.72826 180.367 5.65897 179.223 5.65897C176.681 5.65897 174.062 6.87545 171.996 12.7885L171.297 12.5267C172.588 4.13451 175.537 1.95561 180.221 1.95561C184.906 1.95561 187.962 3.61866 193.269 3.61866C193.899 3.61866 194.452 3.43388 195.704 1.80933L196.18 2.25589ZM182.909 5.87455H182.832C180.697 7.94565 178.301 11.3795 178.301 15.9298C178.301 19.1481 179.077 21.6196 180.475 23.3981L181.727 22.5127C182.541 21.9198 182.909 21.1114 182.909 18.9633V5.87455ZM188.37 6.79846C187.962 6.72147 187.41 6.57518 186.857 6.46739V19.8102C186.857 19.8102 182.986 22.4357 180.92 23.8755C182.656 25.6848 185.159 26.6087 188.37 26.6472V6.79846Z" fill="white"/>
<path d="M203.814 26.832L200.942 29.5652C200.127 28.9339 198.469 27.7559 197.44 27.0861V26.9398C197.916 26.6472 198.069 26.2391 198.069 25.1997V11.4565L197.593 11.1639C196.818 10.6866 196.564 10.6866 196.157 10.6866L196.119 10.5403L198.991 7.76857C199.805 8.39991 201.387 9.5394 202.493 10.2785V10.4248C202.047 10.6866 201.863 11.0562 201.863 12.0494V25.9081C203.007 26.6472 203.414 26.7242 203.745 26.7242L203.821 26.832H203.814ZM199.168 5.91304L197.985 4.61957C199.014 3.58786 201.487 0.923913 202.117 0C202.408 0.369565 203.146 1.95562 203.484 2.81024C202.6 3.54937 200.35 5.17391 199.168 5.91304Z" fill="white"/>
<path d="M225.747 26.832L222.875 29.5652C221.769 28.7183 220.294 27.7174 219.334 27.0861V26.9398C219.78 26.6472 219.964 26.3469 219.964 25.1689V11.8646C219.304 11.3487 218.566 10.8637 218.013 10.5326C218.013 10.5326 217.015 11.3795 216.8 11.5643V26.0928C217.245 26.4624 217.576 26.6472 218.052 27.0168V27.0553C217.169 27.8329 215.364 29.5652 215.364 29.5652C214.627 28.9339 212.377 27.2708 212.377 27.2708V27.0861C212.745 26.8628 213.006 26.3854 213.006 25.2767V11.8646C212.307 11.3487 211.57 10.9022 211.056 10.5711C211.056 10.5711 210.057 11.3872 209.842 11.572V26.1005C210.288 26.4701 210.618 26.6549 211.094 27.0245V27.063C210.541 27.5788 209.289 28.726 208.406 29.5729C207.669 28.9416 206.302 27.9099 205.419 27.2785V27.1322C205.749 26.8705 206.048 26.5779 206.048 25.3614V11.4565C205.165 10.7944 204.681 10.6404 204.205 10.6096L204.128 10.5326C205.196 9.5317 206.01 8.76177 206.932 7.76087C208.114 8.68478 209.22 9.50091 210.288 10.24H210.326L213.237 7.76087C214.45 8.60779 215.817 9.5317 217.146 10.3478L220.202 7.76087C221.454 8.64629 223.005 9.68569 224.403 10.5711V10.7174C224.111 10.9792 223.773 11.3102 223.773 12.0879V25.9081C224.365 26.3546 225.248 26.7935 225.693 26.755L225.77 26.832H225.747Z" fill="white"/>
<path d="M231.423 18.6245V24.2758C233.673 25.7156 234.594 26.0851 235.255 26.0851C235.516 26.0851 235.769 25.9389 236.03 25.6771L236.361 25.346L236.914 25.9389C236.069 26.755 234.295 28.5258 233.373 29.5575C231.791 28.5566 228.873 26.8936 226.999 25.9697V25.8234C227.444 25.4923 227.629 25.1612 227.629 24.014V10.7174C229.549 10.2015 232.091 9.13134 234.264 7.72237C235.109 9.5702 237.029 13.2274 238.066 14.8904C236.737 15.8913 233.527 17.4774 231.43 18.6245H231.423ZM231.607 10.163L231.423 10.2015V17.6698C232.567 17.1155 234.003 16.4149 234.779 15.899C233.857 14.3822 232.237 11.572 231.607 10.1707V10.163Z" fill="white"/>
<path d="M250 18.5168C249.593 18.8093 249.37 19.1789 249.37 19.918V26.3161C247.42 27.0553 245.315 28.2024 243.326 29.5652C242.297 28.8261 240.892 28.0485 239.601 27.7559C239.525 27.9792 239.456 28.3872 239.456 28.9031V29.4574C239.125 29.3496 238.496 29.1649 238.496 29.1649C238.603 24.7686 241.337 21.327 242.735 19.6255C241.667 19.0326 239.525 17.7006 238.826 17.4081V17.2618C239.233 17.0385 239.456 16.6689 239.456 15.9298V10.5711C241.337 10.0168 243.434 8.90806 244.985 7.76087C246.168 8.68478 247.381 9.68569 248.748 10.4941C248.971 9.97826 248.932 9.46241 249.078 8.83107C249.301 9.01585 249.739 9.20063 249.892 9.38542C249.67 10.9407 248.787 13.1581 246.314 16.3302L250 18.3628V18.5091V18.5168ZM245.615 26.9475V19.6332L244.47 19.0403C243.365 20.2568 241.114 23.2903 240.416 24.9149C242.366 25.0226 244.363 26.062 245.538 26.986L245.615 26.9475ZM243.403 10.2015L243.257 10.2785V16.1531C243.587 16.3379 244.255 16.7074 244.624 16.8537C245.507 15.9683 246.728 14.2283 247.281 13.1196C245.768 12.3804 244.148 10.9407 243.411 10.2015H243.403Z" fill="white"/>
</g>
<path d="M1447 17L1449 15L1447 13M1452 17H1455M1443 16C1443 13.1997 1443 11.7996 1443.54 10.7301C1444.02 9.78924 1444.79 9.02433 1445.73 8.54497C1446.8 8 1448.2 8 1451 8H1453C1455.8 8 1457.2 8 1458.27 8.54497C1459.21 9.02433 1459.98 9.78924 1460.45 10.7301C1461 11.7996 1461 13.1997 1461 16V18C1461 20.8003 1461 22.2004 1460.45 23.27C1459.98 24.2108 1459.21 24.9757 1458.27 25.455C1457.2 26 1455.8 26 1453 26H1451C1448.2 26 1446.8 26 1445.73 25.455C1444.79 24.9757 1444.02 24.2108 1443.54 23.27C1443 22.2004 1443 20.8003 1443 18V16Z" stroke="white" stroke-width="2" stroke-linecap="round" stroke-linejoin="round"/>
<defs>
<clipPath id="clip0_3_971">
<rect width="250" height="34" fill="white"/>
</clipPath>
</defs>
</svg>
